<svg width="13" height="13" viewBox="0 0 13 13" fill="none" xmlns="http://www.w3.org/2000/svg">
<path d="M5.6296 2.25781L10.5033 2.25704L1.15873 11.6016C1.03814 11.7222 0.970402 11.8857 0.970402 12.0563C0.970403 12.2268 1.03814 12.3903 1.15873 12.5109C1.27931 12.6315 1.44285 12.6992 1.61338 12.6992C1.78391 12.6992 1.94745 12.6315 2.06803 12.5109L11.4126 3.16635L11.4118 8.04004L11.4118 8.04006C11.4118 8.21078 11.4797 8.3745 11.6004 8.49522C11.7211 8.61593 11.8848 8.68375 12.0555 8.68375C12.2263 8.68375 12.39 8.61593 12.5107 8.49522C12.6314 8.3745 12.6992 8.21078 12.6992 8.04006L12.6992 1.61421C12.6992 1.61418 12.6992 1.61415 12.6992 1.61412C12.6993 1.52958 12.6827 1.44584 12.6504 1.36772C12.6181 1.28956 12.5707 1.21855 12.5109 1.15875C12.4511 1.09894 12.3801 1.05153 12.3019 1.01921C12.2238 0.986894 12.14 0.970314 12.0554 0.970421L5.62959 0.970421C5.54506 0.970421 5.46136 0.987071 5.38326 1.01942C5.30516 1.05177 5.2342 1.09918 5.17443 1.15896C5.05372 1.27967 4.9859 1.4434 4.9859 1.61412C4.9859 1.78484 5.05372 1.94856 5.17443 2.06928C5.29515 2.19 5.45887 2.25781 5.62959 2.25781L5.6296 2.25781Z" fill="white" stroke="#00A859" stroke-width="0.15"/>
</svg>
